<mxfile host="Electron" modified="2024-04-26T14:51:50.566Z" agent="Mozilla/5.0 (Windows NT 10.0; Win64; x64) AppleWebKit/537.36 (KHTML, like Gecko) draw.io/24.2.5 Chrome/120.0.6099.109 Electron/28.1.0 Safari/537.36" etag="qh7qKGXqHLUz6rZz-tKR" version="24.2.5" type="device">
  <diagram id="C5RBs43oDa-KdzZeNtuy" name="Page-1">
    <mxGraphModel dx="1120" dy="532" grid="1" gridSize="10" guides="1" tooltips="1" connect="1" arrows="1" fold="1" page="1" pageScale="1" pageWidth="827" pageHeight="1169" math="0" shadow="0">
      <root>
        <mxCell id="WIyWlLk6GJQsqaUBKTNV-0" />
        <mxCell id="WIyWlLk6GJQsqaUBKTNV-1" parent="WIyWlLk6GJQsqaUBKTNV-0" />
        <mxCell id="KrVlxrJm1vDvad6dHbnX-1" value="" style="edgeStyle=orthogonalEdgeStyle;rounded=0;orthogonalLoop=1;jettySize=auto;html=1;" edge="1" parent="WIyWlLk6GJQsqaUBKTNV-1" source="WIyWlLk6GJQsqaUBKTNV-3" target="KrVlxrJm1vDvad6dHbnX-0">
          <mxGeometry relative="1" as="geometry" />
        </mxCell>
        <mxCell id="WIyWlLk6GJQsqaUBKTNV-3" value="Ask user for message" style="rounded=1;whiteSpace=wrap;html=1;fontSize=12;glass=0;strokeWidth=1;shadow=0;" parent="WIyWlLk6GJQsqaUBKTNV-1" vertex="1">
          <mxGeometry x="160" y="20" width="120" height="40" as="geometry" />
        </mxCell>
        <mxCell id="KrVlxrJm1vDvad6dHbnX-3" value="" style="edgeStyle=orthogonalEdgeStyle;rounded=0;orthogonalLoop=1;jettySize=auto;html=1;" edge="1" parent="WIyWlLk6GJQsqaUBKTNV-1" source="KrVlxrJm1vDvad6dHbnX-0" target="KrVlxrJm1vDvad6dHbnX-2">
          <mxGeometry relative="1" as="geometry" />
        </mxCell>
        <mxCell id="KrVlxrJm1vDvad6dHbnX-0" value="Ask user for shift factor" style="rounded=1;whiteSpace=wrap;html=1;fontSize=12;glass=0;strokeWidth=1;shadow=0;" vertex="1" parent="WIyWlLk6GJQsqaUBKTNV-1">
          <mxGeometry x="160" y="120" width="120" height="40" as="geometry" />
        </mxCell>
        <mxCell id="KrVlxrJm1vDvad6dHbnX-13" value="" style="edgeStyle=orthogonalEdgeStyle;rounded=0;orthogonalLoop=1;jettySize=auto;html=1;" edge="1" parent="WIyWlLk6GJQsqaUBKTNV-1" source="KrVlxrJm1vDvad6dHbnX-2" target="KrVlxrJm1vDvad6dHbnX-12">
          <mxGeometry relative="1" as="geometry" />
        </mxCell>
        <mxCell id="KrVlxrJm1vDvad6dHbnX-2" value="Select x character of the message" style="whiteSpace=wrap;html=1;rounded=1;glass=0;strokeWidth=1;shadow=0;" vertex="1" parent="WIyWlLk6GJQsqaUBKTNV-1">
          <mxGeometry x="160" y="210" width="120" height="60" as="geometry" />
        </mxCell>
        <mxCell id="KrVlxrJm1vDvad6dHbnX-8" value="&lt;h1 style=&quot;margin-top: 0px;&quot;&gt;65-90&lt;/h1&gt;&lt;div&gt;97-122&lt;/div&gt;" style="text;html=1;whiteSpace=wrap;overflow=hidden;rounded=0;" vertex="1" parent="WIyWlLk6GJQsqaUBKTNV-1">
          <mxGeometry x="620" y="180" width="180" height="120" as="geometry" />
        </mxCell>
        <mxCell id="KrVlxrJm1vDvad6dHbnX-9" value="chr(code)" style="text;html=1;align=center;verticalAlign=middle;resizable=0;points=[];autosize=1;strokeColor=none;fillColor=none;" vertex="1" parent="WIyWlLk6GJQsqaUBKTNV-1">
          <mxGeometry x="710" y="345" width="70" height="30" as="geometry" />
        </mxCell>
        <mxCell id="KrVlxrJm1vDvad6dHbnX-15" value="" style="edgeStyle=orthogonalEdgeStyle;rounded=0;orthogonalLoop=1;jettySize=auto;html=1;" edge="1" parent="WIyWlLk6GJQsqaUBKTNV-1" source="KrVlxrJm1vDvad6dHbnX-12" target="KrVlxrJm1vDvad6dHbnX-14">
          <mxGeometry relative="1" as="geometry" />
        </mxCell>
        <mxCell id="KrVlxrJm1vDvad6dHbnX-16" value="YES" style="edgeLabel;html=1;align=center;verticalAlign=middle;resizable=0;points=[];" vertex="1" connectable="0" parent="KrVlxrJm1vDvad6dHbnX-15">
          <mxGeometry x="0.0667" relative="1" as="geometry">
            <mxPoint as="offset" />
          </mxGeometry>
        </mxCell>
        <mxCell id="KrVlxrJm1vDvad6dHbnX-19" value="" style="edgeStyle=orthogonalEdgeStyle;rounded=0;orthogonalLoop=1;jettySize=auto;html=1;" edge="1" parent="WIyWlLk6GJQsqaUBKTNV-1" source="KrVlxrJm1vDvad6dHbnX-12" target="KrVlxrJm1vDvad6dHbnX-18">
          <mxGeometry relative="1" as="geometry" />
        </mxCell>
        <mxCell id="KrVlxrJm1vDvad6dHbnX-22" value="NO" style="edgeLabel;html=1;align=center;verticalAlign=middle;resizable=0;points=[];" vertex="1" connectable="0" parent="KrVlxrJm1vDvad6dHbnX-19">
          <mxGeometry x="-0.1429" y="2" relative="1" as="geometry">
            <mxPoint x="1" as="offset" />
          </mxGeometry>
        </mxCell>
        <mxCell id="KrVlxrJm1vDvad6dHbnX-12" value="Is x character&amp;nbsp;&lt;div&gt;a number?&lt;/div&gt;" style="rhombus;whiteSpace=wrap;html=1;rounded=1;glass=0;strokeWidth=1;shadow=0;" vertex="1" parent="WIyWlLk6GJQsqaUBKTNV-1">
          <mxGeometry x="162.5" y="320" width="115" height="80" as="geometry" />
        </mxCell>
        <mxCell id="KrVlxrJm1vDvad6dHbnX-35" value="" style="edgeStyle=orthogonalEdgeStyle;rounded=0;orthogonalLoop=1;jettySize=auto;html=1;" edge="1" parent="WIyWlLk6GJQsqaUBKTNV-1" source="KrVlxrJm1vDvad6dHbnX-14" target="KrVlxrJm1vDvad6dHbnX-34">
          <mxGeometry relative="1" as="geometry" />
        </mxCell>
        <mxCell id="KrVlxrJm1vDvad6dHbnX-14" value="No shift needed" style="whiteSpace=wrap;html=1;rounded=1;glass=0;strokeWidth=1;shadow=0;" vertex="1" parent="WIyWlLk6GJQsqaUBKTNV-1">
          <mxGeometry x="160" y="630" width="120" height="60" as="geometry" />
        </mxCell>
        <mxCell id="KrVlxrJm1vDvad6dHbnX-25" value="" style="edgeStyle=orthogonalEdgeStyle;rounded=0;orthogonalLoop=1;jettySize=auto;html=1;" edge="1" parent="WIyWlLk6GJQsqaUBKTNV-1" source="KrVlxrJm1vDvad6dHbnX-18" target="KrVlxrJm1vDvad6dHbnX-24">
          <mxGeometry relative="1" as="geometry" />
        </mxCell>
        <mxCell id="KrVlxrJm1vDvad6dHbnX-26" value="YES" style="edgeLabel;html=1;align=center;verticalAlign=middle;resizable=0;points=[];" vertex="1" connectable="0" parent="KrVlxrJm1vDvad6dHbnX-25">
          <mxGeometry x="-0.0444" y="2" relative="1" as="geometry">
            <mxPoint as="offset" />
          </mxGeometry>
        </mxCell>
        <mxCell id="KrVlxrJm1vDvad6dHbnX-28" value="" style="edgeStyle=orthogonalEdgeStyle;rounded=0;orthogonalLoop=1;jettySize=auto;html=1;" edge="1" parent="WIyWlLk6GJQsqaUBKTNV-1" source="KrVlxrJm1vDvad6dHbnX-18" target="KrVlxrJm1vDvad6dHbnX-27">
          <mxGeometry relative="1" as="geometry" />
        </mxCell>
        <mxCell id="KrVlxrJm1vDvad6dHbnX-29" value="NO" style="edgeLabel;html=1;align=center;verticalAlign=middle;resizable=0;points=[];" vertex="1" connectable="0" parent="KrVlxrJm1vDvad6dHbnX-28">
          <mxGeometry x="-0.4894" y="3" relative="1" as="geometry">
            <mxPoint as="offset" />
          </mxGeometry>
        </mxCell>
        <mxCell id="KrVlxrJm1vDvad6dHbnX-18" value="Is x character&amp;nbsp;&lt;div&gt;lowercase?&lt;/div&gt;" style="rhombus;whiteSpace=wrap;html=1;rounded=1;glass=0;strokeWidth=1;shadow=0;" vertex="1" parent="WIyWlLk6GJQsqaUBKTNV-1">
          <mxGeometry x="330" y="320" width="115" height="80" as="geometry" />
        </mxCell>
        <mxCell id="KrVlxrJm1vDvad6dHbnX-31" value="" style="edgeStyle=orthogonalEdgeStyle;rounded=0;orthogonalLoop=1;jettySize=auto;html=1;" edge="1" parent="WIyWlLk6GJQsqaUBKTNV-1" source="KrVlxrJm1vDvad6dHbnX-24" target="KrVlxrJm1vDvad6dHbnX-30">
          <mxGeometry relative="1" as="geometry" />
        </mxCell>
        <mxCell id="KrVlxrJm1vDvad6dHbnX-24" value="Shift by the shift factor between lowercase char" style="whiteSpace=wrap;html=1;rounded=1;glass=0;strokeWidth=1;shadow=0;" vertex="1" parent="WIyWlLk6GJQsqaUBKTNV-1">
          <mxGeometry x="327.5" y="490" width="120" height="60" as="geometry" />
        </mxCell>
        <mxCell id="KrVlxrJm1vDvad6dHbnX-32" style="edgeStyle=orthogonalEdgeStyle;rounded=0;orthogonalLoop=1;jettySize=auto;html=1;exitX=0.5;exitY=1;exitDx=0;exitDy=0;entryX=1;entryY=0.5;entryDx=0;entryDy=0;" edge="1" parent="WIyWlLk6GJQsqaUBKTNV-1" source="KrVlxrJm1vDvad6dHbnX-27" target="KrVlxrJm1vDvad6dHbnX-30">
          <mxGeometry relative="1" as="geometry" />
        </mxCell>
        <mxCell id="KrVlxrJm1vDvad6dHbnX-27" value="Shift by the shift factor between uppercase char" style="whiteSpace=wrap;html=1;rounded=1;glass=0;strokeWidth=1;shadow=0;" vertex="1" parent="WIyWlLk6GJQsqaUBKTNV-1">
          <mxGeometry x="490" y="490" width="120" height="60" as="geometry" />
        </mxCell>
        <mxCell id="KrVlxrJm1vDvad6dHbnX-36" style="edgeStyle=orthogonalEdgeStyle;rounded=0;orthogonalLoop=1;jettySize=auto;html=1;exitX=0.5;exitY=1;exitDx=0;exitDy=0;entryX=0.5;entryY=0;entryDx=0;entryDy=0;" edge="1" parent="WIyWlLk6GJQsqaUBKTNV-1" source="KrVlxrJm1vDvad6dHbnX-30" target="KrVlxrJm1vDvad6dHbnX-34">
          <mxGeometry relative="1" as="geometry" />
        </mxCell>
        <mxCell id="KrVlxrJm1vDvad6dHbnX-30" value="Substitute the shifted char in the message" style="whiteSpace=wrap;html=1;rounded=1;glass=0;strokeWidth=1;shadow=0;" vertex="1" parent="WIyWlLk6GJQsqaUBKTNV-1">
          <mxGeometry x="327.5" y="630" width="120" height="60" as="geometry" />
        </mxCell>
        <mxCell id="KrVlxrJm1vDvad6dHbnX-37" style="edgeStyle=orthogonalEdgeStyle;rounded=0;orthogonalLoop=1;jettySize=auto;html=1;exitX=0;exitY=0.5;exitDx=0;exitDy=0;entryX=0;entryY=0.5;entryDx=0;entryDy=0;" edge="1" parent="WIyWlLk6GJQsqaUBKTNV-1" source="KrVlxrJm1vDvad6dHbnX-34" target="KrVlxrJm1vDvad6dHbnX-2">
          <mxGeometry relative="1" as="geometry">
            <Array as="points">
              <mxPoint x="110" y="850" />
              <mxPoint x="110" y="240" />
            </Array>
          </mxGeometry>
        </mxCell>
        <mxCell id="KrVlxrJm1vDvad6dHbnX-40" value="NO" style="edgeLabel;html=1;align=center;verticalAlign=middle;resizable=0;points=[];" vertex="1" connectable="0" parent="KrVlxrJm1vDvad6dHbnX-37">
          <mxGeometry x="-0.8564" y="2" relative="1" as="geometry">
            <mxPoint as="offset" />
          </mxGeometry>
        </mxCell>
        <mxCell id="KrVlxrJm1vDvad6dHbnX-42" value="" style="edgeStyle=orthogonalEdgeStyle;rounded=0;orthogonalLoop=1;jettySize=auto;html=1;" edge="1" parent="WIyWlLk6GJQsqaUBKTNV-1" source="KrVlxrJm1vDvad6dHbnX-34" target="KrVlxrJm1vDvad6dHbnX-41">
          <mxGeometry relative="1" as="geometry" />
        </mxCell>
        <mxCell id="KrVlxrJm1vDvad6dHbnX-43" value="YES" style="edgeLabel;html=1;align=center;verticalAlign=middle;resizable=0;points=[];" vertex="1" connectable="0" parent="KrVlxrJm1vDvad6dHbnX-42">
          <mxGeometry x="-0.2222" relative="1" as="geometry">
            <mxPoint as="offset" />
          </mxGeometry>
        </mxCell>
        <mxCell id="KrVlxrJm1vDvad6dHbnX-34" value="Is x character the last?" style="rhombus;whiteSpace=wrap;html=1;rounded=1;glass=0;strokeWidth=1;shadow=0;" vertex="1" parent="WIyWlLk6GJQsqaUBKTNV-1">
          <mxGeometry x="230" y="810" width="140" height="80" as="geometry" />
        </mxCell>
        <mxCell id="KrVlxrJm1vDvad6dHbnX-41" value="Print the shifted message" style="whiteSpace=wrap;html=1;rounded=1;glass=0;strokeWidth=1;shadow=0;" vertex="1" parent="WIyWlLk6GJQsqaUBKTNV-1">
          <mxGeometry x="240" y="980" width="120" height="60" as="geometry" />
        </mxCell>
      </root>
    </mxGraphModel>
  </diagram>
</mxfile>
